<svg width="73" height="25" viewBox="0 0 73 25" xmlns="http://www.w3.org/2000/svg"><path d="M54.001 15.209c-.148.16-.309.324-.481.491-.276.267-1.253.933-1.573 1.134-.32.202-.8.383-1.253.519-.453.136-.933.162-1.278.127-.345-.036-1.718-.233-2.375-.767-.658-.533-1.004-1.307-1.04-2.32v-.333l.027-.36.013-.067.013-.04v-.053c.089-.622.258-1.276.507-1.96.249-.684.613-1.329 1.093-1.933.267-.338.591-.636.973-.893.382-.258.76-.453 1.133-.587.373-.133.72-.187 1.04-.16.32.027.569.147.747.36l.227.24.173.213c.142.089.289.218.44.387.151.169.218.404.2.707v.107c-.036.676-.142 1.191-.32 1.547-.178.356-.364.609-.56.76-.196.151-.382.231-.56.24h-.303l-.15-.067c-.051-.057-.213-.48-.16-.533l.08-.053c.267 0 .48-.076.64-.227.16-.151.284-.329.373-.533.089-.204.151-.427.187-.667.036-.24.053-.458.053-.653 0-.196-.018-.329-.053-.4l-.107-.133c-.16-.133-.338-.116-.533.027-.107.071-.262.227-.467.467-.204.24-.427.533-.667.88-.24.347-.48.738-.72 1.173-.24.436-.449.893-.627 1.373-.089.196-.169.431-.24.707-.071.276-.124.556-.16.84-.036.249-.027.489.027.72.053.231.151.418.293.56.196.178.436.276.72.293.267.018.853-.024 1.28-.095.427-.071 1.173-.354 1.467-.558.293-.204.573-.431.84-.68.267-.249.507-.48.72-.693.05-.05.461-.555.858-1.047.248-.604.62-1.319 1.116-2.145l.107-.16.107-.187c.089-.124.164-.244.227-.36.062-.116.129-.218.2-.307.302-.462.587-.902.853-1.32.267-.418.436-.671.507-.76.036-.036.156-.027.2-.027.044 0 .96.573.96.573l.093.147c0 .018-.084.191-.253.52-.169.329-.369.742-.6 1.24-.231.498-.471 1.044-.72 1.64-.249.596-.458 1.16-.627 1.693-.169.533-.271 1-.307 1.4-.036.4.19.543.404.65.16.089.923.15 1.167.093.243-.058.624-.258.897-.484.273-.226.65-.618.881-.965.231-.347.514.537.158 1.026s-.841.896-1.211 1.117c-.371.221-1.088.461-1.594.461-.507 0-1.008-.006-1.519-.112-.511-.106-.698-.25-.782-.292-.084-.042-.373-.262-.533-.493-.16-.231-.236-.56-.227-.987v-.018zm-16.155-4.411l.213-.359.213-.333-.027.027.867-1.32c.276-.418.44-.68.493-.787l.04-.013.04-.013.12.027.12.027.133.027h.133l.107.08.16.16.16.133.147.147.093.147-.213.413c-.142.276-.311.627-.507 1.053-.196.427-.409.907-.64 1.44-.231.533-.436 1.049-.613 1.547l.133-.187c.444-.622.924-1.227 1.44-1.813.444-.498.956-1.013 1.533-1.547.578-.533 1.178-.978 1.8-1.333.017-.025.577-.13.826-.131.249-.001.416-.029.685 0 .27.029.438.143.517.204.078.06.07.147.078.271.009.124-.009.315-.053.403-.142.693-.356 1.307-.64 1.84-.284.533-.766 1.419-.976 1.699-.21.28-.643.678-.839.821-.124.107-.268.177-.449.258-.18.081-.333.126-.493.162-.16.036-.298.058-.413.067l-.173.013c-.089 0-.355-.213-.471-.407-.117-.193-.142-.544-.142-.58l.307-.28.28-.28c.249-.284.453-.564.613-.84.16-.276.303-.569.392-.782.04-.096.063-.466 0-.572-.063-.106-.325.072-.636.374s-.689.702-1.133 1.2c-.444.498-.907 1.084-1.387 1.76-.48.676-.907 1.396-1.28 2.16-.036.053-.089.173-.16.36-.071.187-.116.342-.133.467-.053.231-.124.311-.213.24-.053-.018-.138.004-.253.067-.116.062-.227.067-.333.013-.089-.053-.213-.089-.373-.107-.16-.018-.293-.062-.4-.133-.16-.124-.298-.311-.413-.56-.116-.249-.151-.587-.107-1.013.026-.246.085-.527.179-.841-.261.372-.454.628-.578.768-.284.302-1.01.464-1.278.464s-.538-.051-.733-.104c-.089-.018-.196-.076-.32-.173-.124-.098-.244-.213-.36-.347-.116-.133-.213-.276-.293-.427-.08-.151-.12-.298-.12-.44-.284.356-.551.684-.8.987-.213.249-.431.493-.653.733-.222.24-.387.404-.493.493-.231.16-.396.253-.493.28-.098.027-.218.022-.36-.013-.142-.036-.302-.133-.48-.293-.178-.16-.338-.293-.48-.4-.142-.107-.311-.307-.507-.6l-.029-.045c-.375.51-.818 1.069-1.104 1.293-.458.359-1.351.508-2.069.587-.718.079-1.709-.134-1.787-.162-.196-.071-.364-.191-.507-.36-.142-.169-.249-.409-.32-.72-.071-.311-.044-.72.08-1.227.124-.507.356-1.116.693-1.827.338-.711.836-1.564 1.493-2.56-.551.498-1.084 1.04-1.6 1.627-.444.516-.911 1.107-1.4 1.773-.489.667-.92 1.391-1.293 2.173-.036.053-.093.178-.173.373-.08.196-.129.356-.147.48-.018.231-.089.311-.213.24-.036-.018-.111.004-.227.067-.116.062-.236.067-.36.013-.089-.053-.213-.093-.373-.12-.16-.027-.293-.067-.4-.12-.16-.124-.293-.316-.4-.573-.107-.258-.138-.6-.093-1.027.044-.427.187-.951.427-1.573l.097-.24-.109.092c-.418.347-1.655.964-2.082 1.16-.427.196-1.249.28-1.438.162-.267.462-.529.727-.893 1.118-.364.391-.796.684-1.293.88-.8.302-1.431.373-1.893.213-.462-.16-.818-.391-1.067-.693-.302-.356-.516-.809-.64-1.36l-.027-.08c-.107-.569-.129-1.147-.067-1.733.062-.587.262-1.218.6-1.893.213-.427.476-.836.787-1.227.311-.391.636-.724.973-1 .338-.276.671-.484 1-.627.329-.142.766-.232.997-.161.109.034.529.197.806.346.277.149.478.324.637.455.089.089.133.196.133.32s-.018.204-.053.24l-.12.173-.093.147-.133.027-.213-.16c-.213-.178-.436-.196-.667-.053l-.173.147c-.08.062-.182.164-.307.307-.24.373-.498.791-.747 1.253-.213.391-.427.844-.64 1.36-.213.516-.364 1.067-.453 1.653-.053.356-.076.72-.067 1.093.009.373.111.631.307.773.071.089.204.089.4 0 .267-.089.578-.293.933-.613.356-.32.711-.738 1.067-1.253-.213-.142-.364-.32-.453-.533-.213-.444-.289-.876-.227-1.293.062-.418.2-.782.413-1.093.213-.311.471-.547.773-.707.302-.16.587-.204.853-.133.213.071.373.196.48.373.071.124.111.267.12.427.009.16.009.311 0 .453-.009.142-.027.276-.053.4l-.067.293-.027.053v.027-.027l-.173.493-.2.52c.131 0 .425.086.766 0s1.274-.541 1.634-.813c.578-.436.921-1.062 1.686-2.146.008 0 .1.201.167.466l1.399-2.212c.267-.418.436-.671.507-.76l.053-.027.182.027c.061.026.867.495.911.547l.08.147-.24.48c-.16.32-.351.724-.573 1.213-.222.489-.458 1.027-.707 1.613-.249.587-.453 1.147-.613 1.68l.293-.693c.444-.64.924-1.253 1.44-1.84.444-.516.956-1.036 1.533-1.56.578-.524 1.533-1.16 1.8-1.32.267-.16.516-.276.587-.24.036.018.275.125.433.24.158.115.473.391.473.427 0 .018-.084.191-.253.52-.169.329-.369.742-.6 1.24-.231.498-.471 1.044-.72 1.64-.249.596-.453 1.16-.613 1.693-.16.533-.258 1.004-.293 1.413-.036.409.053.667.267.773.16.089.49.015.69-.055.2-.07.654-.359.921-.573.236-.189.739-.699 1.236-1.371l.139-.198c.059-.601.198-1.24.416-1.917.258-.8.662-1.547 1.213-2.24.267-.338.591-.636.973-.893.382-.258.76-.453 1.133-.587.373-.133.72-.187 1.04-.16.32.027.569.147.747.36.356.427.613.751.773.973.16.222.249.404.267.547.018.071 0 .12-.053.147-.053.027-.111.027-.173 0l-.213-.133c-.08-.062-.138-.138-.173-.227-.089-.196-.2-.338-.333-.427-.133-.089-.298-.062-.493.08-.124.107-.329.333-.613.68-.284.347-.578.769-.88 1.267-.302.498-.587 1.049-.853 1.653-.267.604-.444 1.218-.533 1.84l.107.027.16-.027c.071-.018.151-.062.24-.133.142-.107.302-.262.48-.467.178-.204.342-.409.493-.613l.413-.547.24-.32c.036-.053.08-.156.133-.307l.187-.547c.071-.213.164-.436.28-.667.116-.231.253-.444.413-.64.107-.124.204-.222.293-.293l.24-.107c.071-.018.133.018.187.107.053.124.196.293.213.293l.08.107c.036.107.098.133.187.08.089-.053.116-.036.08.053l-.133.267-.227.427c-.08.16-.151.329-.213.507s-.093.32-.12.48c-.027.16.027 1.373.32 1.547.293.173.415.144.543.107.128-.038.606-.28.802-.547l.547-.72.787-1.04.963-1.267-.123.272zm-32.404-10.781h.227l.333.027c.249.036.489.08.72.133.231.053.338.142.32.267l-.28.667-.653 1.6c-.284.676-.6 1.449-.947 2.32-.347.871-.702 1.787-1.067 2.747-.364.96-.716 1.938-1.053 2.933-.338.996-.631 1.947-.88 2.853-.142.462-.262.902-.36 1.32-.098.418-.182.822-.253 1.213.124-.409.258-.822.4-1.24.142-.418.293-.831.453-1.24.284-.676.596-1.333.933-1.973.338-.64.676-1.249 1.013-1.827.338-.578.671-1.12 1-1.627.329-.507.636-.956.92-1.347.16-.231.311-.44.453-.627.142-.187.258-.351.347-.493.533-.747 1.098-1.449 1.693-2.107.596-.658 1.204-1.236 1.827-1.733.622-.498 1.267-.893 1.933-1.187.667-.293 1.338-.449 2.013-.467.462-.018.88.062 1.253.24.302.142.587.382.853.72.267.338.382.818.347 1.44l-.053.213-.08.133c-.124.124-.231.196-.32.213h-.16c-.036-.018-.089-.009-.16.027-.089.036-.142.027-.16-.027l-.027-.107c0-.302-.08-.6-.24-.893-.16-.293-.498-.484-1.013-.573-.249-.036-.658.147-1.227.547-.569.4-1.227.96-1.973 1.68-.747.72-1.551 1.573-2.413 2.56-.862.987-1.702 2.049-2.52 3.187.036.196.08.382.133.56.053.178.098.364.133.56.08.249.151.538.24.867l.267 1.027.093.333.093.333.027.053c.036.142.124.418.267.827.142.409.32.818.533 1.227.427.818.862 1.44 1.307 1.867.444.427.867.729 1.267.907.4.178.769.267 1.107.267.338 0 .613-.027.827-.08l.32.12c.107.044.178.12.213.227 0 .071.027.133.08.187.036.089.027.151-.027.187-.32.178-.667.276-1.04.293-.64.036-1.227-.018-1.76-.16-.569-.142-1.08-.347-1.533-.613-.453-.267-.84-.547-1.16-.84-.32-.293-.587-.578-.8-.853-.213-.276-.364-.484-.453-.627l-.027-.08c-.622-1.013-1.227-2.347-1.813-4-.64 1.031-1.209 2.067-1.707 3.107s-.88 2.067-1.147 3.08l-.16.467-.133.36c-.036.089-.08.116-.133.08-.053-.036-.124-.009-.213.08l-.053.027c-.071.053-.133.071-.187.053l-.133-.053c-.284-.427-.516-.907-.693-1.44-.178-.533-.293-1.138-.347-1.813-.053-.676-.031-1.436.067-2.28.098-.844.271-1.809.52-2.893.124-.604.284-1.244.48-1.92.391-1.44.8-2.716 1.227-3.827.427-1.111.822-2.049 1.187-2.813.364-.764.671-1.347.92-1.747.249-.4.391-.609.427-.627.071-.053.569.036.587 0zm53.976 6.903c-.196-.071-.318-.154-.368-.266-.065-.147-.041-.225-.049-.367-.009-.142.067-.313.097-.434s.276-.693.4-.907c.124-.213.258-.413.4-.6.142-.187.284-.298.427-.333.284-.053 1.591.062 1.733.08.142.018.151.124.027.32-.053.107-1.307 2.044-1.36 2.133-.089.178-.231.333-.427.467-.196.133-.791-.058-.88-.093zm13.544 3.399c-.018.018-.107.209-.267.573-.16.364-.378.804-.653 1.32-.276.516-.591 1.067-.947 1.653-.356.587-.729 1.124-1.12 1.613-.391.489-.791.889-1.2 1.2-.409.311-.8.44-1.173.387l-.08-.027-.213-.053c-.196-.018-.382-.062-.56-.133-.178.444-.364.933-.56 1.467-.196.533-.396 1.071-.6 1.613l-.587 1.573-.493 1.347-.347.96-.128.392c-.047.186-.109.303-.162.374-.071.053-.279.047-.403.02s-1.289-.582-1.36-.653l-.08-.08c-.036-.373.027-.88.187-1.52s.373-1.324.64-2.053c.267-.729.564-1.471.893-2.227.329-.756.636-1.436.92-2.04l.16-.4-.253.16-.173.107-.133.08c-.196.098-.396.204-.6.293-.204.089-.422.151-.653.187-.836.178-1.458.151-1.867-.08-.409-.231-.702-.524-.88-.88-.196-.409-.284-.898-.267-1.467v-.08c.036-.604.16-1.187.373-1.747s.569-1.151 1.067-1.773c.32-.391.684-.747 1.093-1.067.409-.32.822-.582 1.24-.787.418-.204.804-.338 1.16-.4.356-.062.64-.04.853.067.107 0 .316.098.627.293.311.196.582.471.813.827l.027.053.08.133c.124.196.276.453.453.773.213-.338.413-.649.6-.933.187-.284.351-.524.493-.72.16-.231.311-.436.453-.613l.133-.053.08.053c.018.018.79.968.773 1.173-.017.206-.413.733-.707 1.293-.293.56-.6 1.178-.92 1.853-.107.213-.209.431-.307.653-.098.222-.2.431-.307.627l-.107.253-.107.253-.213.533c-.071.196-.124.382-.16.56-.036.178-.049.333-.04.467.009.133.067.209.173.227.16.036.347-.018.56-.16.213-.142.444-.347.693-.613.249-.267.502-.569.76-.907.258-.338.511-.693.76-1.067.587-.853 1.182-1.831 1.787-2.933l.133-.027c.071 0 .658.044.64.08zm-10.507 5.547c.302-.053.698-.236 1.187-.547.489-.311 1-.733 1.533-1.267v-.027l.24-.253.24-.253.387-.493c.151-.187.316-.413.493-.68l.16-.267c.089-.16.187-.32.293-.48.107-.16.204-.32.293-.48-.071-.178-.124-.293-.16-.347l-.08-.133c-.071-.124-.178-.271-.32-.44l-.24-.307c-.142-.178-.338-.213-.587-.107-.089.036-.293.151-.613.347v-.027c-.391.302-.764.649-1.12 1.04-.302.338-.627.738-.973 1.2-.347.462-.644.978-.893 1.547-.142.356-.253.711-.333 1.067-.08.356-.049.631.093.827.053.089.187.116.4.08z" fill="#21252A"/></svg>
